<?xml version="1.0" standalone="no"?>
<!DOCTYPE svg PUBLIC "-//W3C//DTD SVG 20010904//EN"
 "http://www.w3.org/TR/2001/REC-SVG-20010904/DTD/svg10.dtd">
<svg version="1.0" xmlns="http://www.w3.org/2000/svg"
 width="600.000000pt" height="600.000000pt" viewBox="0 0 600.000000 600.000000"
 preserveAspectRatio="xMidYMid meet">
<metadata>
Created by potrace 1.11, written by Peter Selinger 2001-2013
</metadata>
<g transform="translate(0.000000,600.000000) scale(0.100000,-0.100000)"
fill="#000000" stroke="none">
<path d="M2727 4323 c-1 0 -38 -4 -82 -8 -44 -3 -94 -8 -111 -11 -17 -3 -48
-7 -70 -10 -63 -8 -129 -20 -129 -24 0 -1 -7 -3 -15 -5 -88 -18 -350 -115
-429 -159 -23 -13 -41 -11 -106 15 -91 35 -213 57 -258 45 -13 -3 -32 -13 -43
-23 -25 -23 -85 -149 -99 -208 -2 -11 -9 -40 -15 -65 -12 -46 -20 -90 -23
-125 -1 -11 -28 -47 -59 -80 -76 -80 -154 -179 -170 -216 -7 -16 -17 -29 -21
-29 -5 0 -6 -4 -2 -9 3 -5 1 -12 -5 -16 -5 -3 -26 -40 -45 -81 -32 -67 -38
-74 -58 -68 -29 8 -106 67 -101 76 2 4 -4 9 -13 12 -30 10 -137 193 -148 253
-2 13 -6 26 -9 31 -3 4 -7 30 -11 58 -9 76 -13 83 -58 94 -64 16 -290 89 -404
130 -56 21 -107 34 -114 30 -19 -12 1 -155 30 -208 6 -12 9 -22 6 -22 -12 0
58 -119 91 -156 19 -22 30 -43 25 -49 -14 -18 -53 -140 -53 -165 0 -3 -4 -11
-10 -17 -6 -7 -8 -13 -5 -13 3 0 2 -13 -3 -29 -11 -38 5 -58 50 -67 62 -11
199 -5 251 11 13 4 19 2 19 -8 0 -23 58 -132 83 -155 l23 -21 49 23 c28 13 65
36 84 51 30 26 43 29 112 32 44 2 79 -1 79 -5 0 -9 -15 -60 -27 -92 -8 -20
-10 -28 -18 -69 -3 -19 -7 -37 -9 -40 -5 -7 -12 -55 -22 -131 -9 -73 -9 -274
-1 -330 4 -25 14 -70 23 -100 8 -30 17 -66 20 -80 7 -36 85 -190 95 -190 5 0
9 -9 9 -21 0 -11 5 -17 10 -14 6 3 10 0 10 -7 0 -16 56 -84 127 -155 49 -48
173 -141 173 -128 0 3 19 -4 42 -16 39 -20 161 -69 183 -73 6 -1 33 -10 60
-19 51 -16 69 -21 160 -38 46 -9 67 -13 135 -25 74 -13 204 -26 405 -40 120
-9 677 -9 860 0 332 16 492 28 540 43 11 3 29 7 40 8 11 1 34 4 50 8 17 4 41
9 55 11 104 20 289 80 380 124 54 26 143 84 167 109 12 13 25 23 28 23 19 0
177 189 169 202 -3 4 -2 8 3 8 4 0 18 19 29 43 53 104 63 127 58 127 -2 0 0 9
6 21 12 22 18 45 26 98 2 19 7 38 10 43 25 40 17 347 -12 481 -11 50 -14 60
-18 75 -3 9 -7 28 -10 42 -13 68 -88 260 -120 307 -14 20 -23 40 -20 45 3 4 1
8 -3 8 -5 0 -26 28 -47 63 -64 106 -123 182 -213 273 -58 59 -75 86 -80 128
-5 50 -42 196 -55 219 -7 12 -13 24 -14 27 -8 36 -62 103 -75 95 -4 -3 -10 -2
-12 2 -17 28 -215 -15 -319 -68 -43 -22 -63 -20 -128 8 -62 27 -74 31 -130 48
-30 9 -62 19 -70 21 -8 3 -16 5 -18 5 -1 -1 -18 5 -37 13 -19 8 -35 13 -35 11
0 -2 -16 3 -35 11 -19 8 -35 11 -35 8 0 -4 -6 -2 -12 3 -15 12 -56 22 -108 29
-19 2 -53 7 -75 10 -22 3 -60 8 -85 10 -25 3 -63 7 -85 10 -40 5 -175 10 -178
7z"/>
<path d="M5859 3953 c-57 -19 -115 -37 -129 -39 -14 -3 -32 -7 -41 -10 -16 -5
-61 -11 -129 -19 -19 -2 -53 -7 -75 -11 -22 -3 -56 -8 -75 -9 -19 -2 -35 -4
-35 -5 0 -1 -13 -4 -28 -6 -74 -8 -95 -23 -113 -77 -9 -29 -23 -62 -30 -74 -8
-13 -12 -23 -9 -23 12 0 -76 -159 -116 -210 -41 -53 -112 -125 -161 -163 -34
-27 -136 -75 -186 -87 -31 -8 -42 -16 -40 -27 5 -25 77 -41 192 -44 43 -1 56
-7 118 -57 38 -32 74 -56 79 -55 5 2 9 -1 9 -6 0 -5 11 -11 24 -13 18 -4 30 2
44 22 26 34 73 125 76 144 4 26 12 27 52 12 22 -8 48 -17 59 -21 22 -9 44 -11
163 -20 45 -4 82 -3 83 2 0 4 3 17 6 28 3 11 5 77 6 146 l0 127 54 22 c173 72
314 261 330 441 4 43 2 57 -9 62 -8 3 -62 -10 -119 -30z"/>
</g>
</svg>
